<?xml version="1.0" encoding="utf-8"?>
<!-- Generator: Adobe Illustrator 27.6.1, SVG Export Plug-In . SVG Version: 6.00 Build 0)  -->
<svg version="1.1" id="Layer_1" xmlns="http://www.w3.org/2000/svg" xmlns:xlink="http://www.w3.org/1999/xlink" x="0px" y="0px"
	 viewBox="0 0 1000 1000" style="enable-background:new 0 0 1000 1000;" xml:space="preserve">
<style type="text/css">
	.st0{fill:#173237;}
	.st1{fill:#1A3136;}
	.st2{fill:#173237;stroke:#173237;stroke-width:10.9212;stroke-linecap:round;stroke-miterlimit:10;}
	.st3{fill:#143637;}
</style>
<path class="st0" d="M108.5,104.7c0,0-0.4,59-0.4,65c0,6.1,0.9,12.9,7.4-2.8c6.5-15.8,13.3-40.7,36.1-47.4
	c12.1-3.6,337.6-10.1,337.6-10.1s36.9-4.1,27.6,29.1c-8.5,27.5-27.2,59.4-31.2,64.7c-4,5.4,0.5,13.6,6.2,3.7
	c8.9-15.4,59.6-89.4,87.6-95.5c29.3-6.1,80.2,4.6,105.5,13.2c25.7,8.8,110.8,43.3,110.5,131.7c-0.3,87.9-114.6,134.2-142.2,139.7
	c-26,6.9-38.5,5.5-38.6,9.3c-0.1,3.2,24.6,6.6,45.2,12.7c23,5.3,147.8,52.4,144.6,163.2C801,692.2,673.6,701.9,673.6,701.9
	s-342.1,3.4-347.1,3.2c-11.9-0.5-50.6-12.9-42.3-53.8s28.6-69.4,28.6-69.4s2.9-5.6-0.1-6.8c-3-1.2-7,5.1-8.9,7.3
	c-1.8,2.2-51.3,84.5-78.4,110.5c-26.3,25.3-42.5,37.9-69.4,41.7c-5.9,0.8-6.1,7.1,5.3,6.9c11.3-0.2,540.6,0,540.6,0
	s183.4-10.6,184-166.2c0,0,3.2-116.8-124.4-160.2c-32-10.9-24.6-9.1-15.1-13c8.8-3.6,130.8-35.5,126.6-161.3
	c-4.3-130-156.7-178-219-177.2c-62.2-0.6-71.1,0.7-79.4-0.5c-8.3-1.2-19.1-26.6-29.2-27c-7.5-0.3-17.8,25.7-35.4,27.7
	c-17.6,2-328.1,7.9-347,8.5c-24.6,0.8-41.6-8.4-48.4-21c-6.9-12.6-6,7.9-6.2,12.9C108.4,69.3,108.5,104.7,108.5,104.7z"/>
<path class="st1" d="M429.7,303.5c0,0,1.6-4.2,4.2-3.4c2.6,0.8-1.4,7.1-1.4,7.1s-33.4,88.2,64.7,91.8c10.9,0.4,8.4,1.6,8.4,1.6
	s-4.4,0.7-9.6,1.4c-5.2,0.7-60.6,5.9-95.4,28.7S348.3,481,347,485c-1.3,4-3.4,0.8-1.9-6.9c1.5-7.7,2.3-44-19.3-56.5
	c-21.6-12.5-45.2-20.4-52.6-21.8c-7.4-1.5-12-3.4-2.8-3.5c9.2-0.1,61.3-3.5,93.6-24.4C396.2,351,429.7,303.5,429.7,303.5z"/>
<line class="st2" x1="94.7" y1="790.2" x2="892.9" y2="781"/>
<path class="st3" d="M149.9,875.7c8.3-7.8,16.4-11.2,24.6-11.2c7.5,0,14.5,3.9,19.3,9.2c5.3,5.7,6.5,12.5,6.5,21.8
	c0,10.9-3.6,18.9-12.2,25.5c-7.4,5.7-13.5,8.1-22.7,8.1c-4.3,0-9.7-0.3-13.2-1.4c-4.4-1.4-8.7-2.3-13.3-4.9l-0.2-63.6
	c0-7,0.2-11.3,0.2-13c0-1.7,0-4.2-0.4-5.2c-0.4-1.1-3-1.8-4.3-1.8c-1.5,0-2.7,0-5,0.7l-1.1-2.3l19.4-4.2l2.2,0L149.9,875.7z
	 M150.7,879.9l0.2,38.6c2.7,2.2,5.6,3.9,8.5,5c3.2,1.2,6.4,1.6,9.5,1.2c5-0.6,11-3.6,14.9-8.3c4.1-4.9,5.2-11.4,5.1-20
	c-0.1-8-0.4-13.3-4.4-18.8c-2.9-4-9.6-7-16.6-6.8c-2.8,0.1-8.3,1.5-10.8,3.3C154.8,875.8,153.5,877.2,150.7,879.9z"/>
<path class="st3" d="M223.5,892.3c-0.1,8.9,2,14.4,6.7,20c4.5,5.2,9.8,8.6,18.5,8.4c4.7-0.1,8.2-0.8,12.5-2.8
	c3.7-1.7,7.2-4.8,9.6-8.4l2.4,1.3c-2.8,5.4-6.6,9.8-9.4,11.8c-5.9,4.2-11.6,6.4-19.6,6.4c-8.6,0-16.2-2.1-22.3-7.7
	c-6.1-5.6-9.5-13.4-9.5-22.8c0-10.2,2.2-18.4,8.1-24.6c5.6-5.9,14.5-10,24-10c8,0,16.9,4,21.1,8.9c4.5,5.1,7.5,12.1,7.5,19.5H223.5z
	 M223.4,887.9l36.1,0.1c-0.3-3.8-1.1-8-2.5-10.5c-1.3-2.4-4-5.5-6.6-6.9c-2.6-1.4-6.1-2-9-2c-4.3,0-9.7,2.2-12.7,5.5
	C225.6,877.4,224,882.9,223.4,887.9z"/>
<path class="st3" d="M758.2,892c-0.1,8.9,2,14.4,6.7,20c4.5,5.2,9.8,8.6,18.5,8.4c4.7-0.1,8.2-0.8,12.5-2.8c3.7-1.7,7.2-4.8,9.6-8.4
	l2.4,1.3c-2.8,5.4-6.6,9.8-9.4,11.8c-5.9,4.2-11.6,6.4-19.6,6.4c-8.6,0-16.2-2.1-22.3-7.7c-6.1-5.6-9.5-13.4-9.5-22.8
	c0-10.2,2.2-18.4,8.1-24.6c5.6-5.9,14.5-10,24-10c8,0,16.9,4,21.1,8.9c4.5,5.1,7.5,12.1,7.5,19.5H758.2z M758.1,887.5l36.1,0.1
	c-0.3-3.8-1.1-8-2.5-10.5c-1.3-2.4-4-5.5-6.6-6.9c-2.6-1.4-6.1-2-9-2c-4.3,0-9.7,2.2-12.7,5.5C760.4,877,758.7,882.5,758.1,887.5z"
	/>
<path class="st3" d="M331.3,863.9l0.2,19.1h-2.6c-2-6.8-2.6-10.8-7.6-14.1c-3.3-2.2-9-2.9-13.8-2.9c-3.7,0-6.6,1.4-8.9,3.1
	c-2.2,1.7-3.4,3.6-3.4,5.7c0,2.6,0.8,4.8,2.5,6.7c1.6,1.9,4.9,3.9,9.9,6l11.4,4.9c10.6,4.6,15.9,10.6,15.9,18.1
	c0,5.8-2.5,10.4-7.4,14c-4.9,3.5-10.5,5.3-16.6,5.3c-4.4,0-9.5-0.8-14.9-3.2c-1.6-0.6-3.2-0.9-4.3-0.9c-1.2,0-2.2,1.9-2.8,3.1h-2.6
	v-22.7h2.6c1.5,6.5,4.3,11.3,8.4,14.6c4.1,3.3,8.7,4.9,13.9,4.9c3.6,0,7.1-0.8,9.4-2.7c2.3-1.9,4.1-4.7,4-7.3c-0.1-4-1.3-7.1-4-9
	c-3.2-2.1-8.2-4.5-15.7-7.8c-7.6-3.3-12.5-6.1-14.8-8.8c-2.3-2.6-3.9-5.2-3.9-9.2c0-5.2,2-9.6,6.1-13.1c4-3.5,9.3-5.3,15.7-5.3
	c2.8,0,6.2,0.5,10.3,1.6c2.7,0.7,6.7,2.9,7.6,2.9c0.8,0,1.5-0.2,2-0.5c0.5-0.3,0.4-1.5,1.1-2.6H331.3z"/>
<path class="st3" d="M641.5,863.9l0.2,19.1h-2.6c-2-6.8-2.6-10.8-7.6-14.1c-3.3-2.2-9-2.9-13.8-2.9c-3.7,0-6.6,1.4-8.9,3.1
	c-2.2,1.7-3.4,3.6-3.4,5.7c0,2.6,0.8,4.8,2.5,6.7c1.6,1.9,4.9,3.9,9.9,6l11.4,4.9c10.6,4.6,15.9,10.6,15.9,18.1
	c0,5.8-2.5,10.4-7.4,14c-4.9,3.5-10.5,5.3-16.6,5.3c-4.4,0-9.5-0.8-14.9-3.2c-1.6-0.6-3.2-0.9-4.3-0.9c-1.2,0-2.2,1.9-2.8,3.1h-2.6
	v-22.7h2.6c1.5,6.5,4.3,11.3,8.4,14.6c4.1,3.3,8.7,4.9,13.9,4.9c3.6,0,7.1-0.8,9.4-2.7c2.3-1.9,4.1-4.7,4-7.3c-0.1-4-1.3-7.1-4-9
	c-3.2-2.1-8.2-4.5-15.7-7.8c-7.6-3.3-12.5-6.1-14.8-8.8c-2.3-2.6-3.9-5.2-3.9-9.2c0-5.2,2-9.6,6.1-13.1c4-3.5,9.3-5.3,15.7-5.3
	c2.8,0,6.2,0.5,10.3,1.6c2.7,0.7,6.7,2.9,7.6,2.9c0.8,0,1.5-0.2,2-0.5c0.5-0.3,0.4-1.5,1.1-2.6H641.5z"/>
<path class="st3" d="M865.2,864.1l0.2,19.1h-2.6c-2-6.8-2.6-10.8-7.6-14.1c-3.3-2.2-9-2.9-13.8-2.9c-3.7,0-6.6,1.4-8.9,3.1
	c-2.2,1.7-3.4,3.6-3.4,5.7c0,2.6,0.8,4.8,2.5,6.7c1.6,1.9,4.9,3.9,9.9,6l11.4,4.9c10.6,4.6,15.9,10.6,15.9,18.1
	c0,5.8-2.5,10.4-7.4,14c-4.9,3.5-10.5,5.3-16.6,5.3c-4.4,0-9.5-0.8-14.9-3.2c-1.6-0.6-3.2-0.9-4.3-0.9c-1.2,0-2.2,1.9-2.8,3.1h-2.6
	v-22.7h2.6c1.5,6.5,4.3,11.3,8.4,14.6c4.1,3.3,8.7,4.9,13.9,4.9c3.6,0,7.1-0.8,9.4-2.7c2.3-1.9,4.1-4.7,4-7.3c-0.1-4-1.3-7.1-4-9
	c-3.2-2.1-8.2-4.5-15.7-7.8c-7.6-3.3-12.5-6.1-14.8-8.8c-2.3-2.6-3.9-5.2-3.9-9.2c0-5.2,2-9.6,6.1-13.1c4-3.5,9.3-5.3,15.7-5.3
	c2.8,0,6.2,0.5,10.3,1.6c2.7,0.7,6.7,2.9,7.6,2.9c0.8,0,1.5-0.2,2-0.5c0.5-0.3,0.4-1.5,1.1-2.6H865.2z"/>
<path class="st3" d="M368.5,845.7l-0.1,19.8h16.8v4.7h-16.8l-0.7,41c0,4,0.7,6.7,2,8.1c1.3,1.4,3,2.1,5.1,2.1c1.7,0,4.8,0,6.6-0.6
	c2.1-0.7,3.5-1.8,4.4-3.6h3.1c-1.8,4.4-4.7,6-8,8.3c-3.3,2.2-6.8,3.3-10.4,3.3c-2.4,0-4.8-0.6-7.1-1.7c-2.3-1.1-4-2.8-5.1-4.9
	c-1.1-2.1-1.6-5.4-1.6-9.9l0.4-42.9h-11.4v-2.2c2.9-1,5.8-2.7,8.8-5c3-2.4,4.7-3.8,7.1-7c1.2-1.7,2.3-5,4.4-9.5H368.5z"/>
<path class="st0" d="M424.9,865h32v2.5c-2.8,0.2-5.8,0.6-6.7,1.3c-0.9,0.7-1.3,1.6-1.3,2.9c0,1.4,0.5,3.1,1.4,5.1l17.6,38.8
	l16.4-32.3l-4.2-9.1c-1.3-2.7-3-4.6-5.1-5.6c-1.2-0.6-2.6-0.7-5.8-0.9l-0.1-2.7l31.7,0l-0.1,3.2c-3.9,0.1-3.8-0.1-5.4,0.9
	c-1.1,0.7-1.6,1.9-1.6,3.4c0,0.9,0.2,1.8,0.6,2.8l16.1,40.1l16.2-38.8c1.1-2.4,2.2-4.4,2.2-5.8c0-0.9-0.5-1.6-1.6-2.3
	c-1-0.7-3.1-1.1-6.2-1.1V865h23.3v2.5c-4.7,0.6-8.7,3.2-10.9,8l-22.9,53.1l-6.2,0l-18.5-39.5l-18,39.4l-6.5-0.2l-24.3-51.4
	c-1.6-3.3-3.5-5.9-5-7c-1.5-1.1-4.2-1.7-7.4-2.3V865z"/>
<path class="st0" d="M572.2,864.7v49c0,3.8,0.3,6.4,1,7.6c0.7,1.3,2.3,2.3,3.6,2.9c1.3,0.6,2.9,0.7,6.4,0.7v2.4l-33.2,0.1v-2.4
	c3.6,0,4.7,0,5.9-0.6c1.2-0.6,3.7-1.8,4.4-3.2s1.1-3.9,1.1-7.7v-23.5c0-6.6,0-10.5-0.2-13c-0.1-1.8-0.1-5.2-1.9-6.7
	c-0.8-0.6-1.7-1-3.1-1c-1.5,0-2.5,0-4.6,0.7l-1.1-2.4l12.6-3.2L572.2,864.7z M566.5,837.8c2.3,0,4.2,0.7,5.8,2
	c1.6,1.3,2.4,2.9,2.4,4.8s-0.8,3.5-2.4,4.8c-1.6,1.3-3.5,2-5.8,2s-4.2-0.7-5.8-2s-2.4-2.9-2.4-4.8s0.8-3.5,2.4-4.8
	C562.3,838.5,564.2,837.8,566.5,837.8z"/>
<path class="st0" d="M678,832.7l-0.2,41.4c6.7-4.7,11.4-7.5,15.8-8.9c3.2-1,7.5-1.4,11-1.4c4.2,0,8.2,1.9,11.3,3.8
	c3,1.9,5.9,4.3,7.3,8.4c1,2.8,1.5,8,1.5,15.6v21.6c0,3.9,0.4,6.5,1.1,7.9c0.5,1.1,1.5,1.9,2.7,2.5s3.7,0.9,7.1,0.9v2.4h-36.3v-2.4
	h1.7c3.4,0,8.9-0.8,10.3-1.6c1.3-0.9,2.3-2.1,2.8-3.8c0.2-0.7,0.2-2.8,0.2-6.3v-21.6c0-6.7-0.5-9.6-1.4-11.7
	c-0.8-2.1-2.7-5.6-4.5-6.7c-1.8-1-5.6-2.9-8.2-2.8c-3.9,0.1-7.8,0.4-10.7,1.6c-2.8,1.2-8,3.1-11.9,6.6l-0.2,34.6
	c0,4.2,0.3,6.8,0.8,7.8c0.6,1,1.6,1.9,3.1,2.6c1.5,0.7,4.1,1.4,7.9,1.4v2.4l-32.4-0.2v-2.4c3.3,0,5.1-0.4,7-1.2
	c1.1-0.4,1.9-1.3,2.6-2.5c0.6-1.2,0.6-3.8,0.6-7.6l0.1-55.3c0-7,0.1-11.2-0.3-12.8c-0.4-1.6,0.1-1.9-1.3-3.5c-0.7-0.8-2.6-1.8-4-1.8
	c-1.1,0-3.8-0.4-6.3,0.3l-1.1-2.3l19.9-5.1H678z"/>
</svg>
